<?xml version="1.0" standalone="no"?>
<!DOCTYPE svg PUBLIC "-//W3C//DTD SVG 20010904//EN"
 "http://www.w3.org/TR/2001/REC-SVG-20010904/DTD/svg10.dtd">
<svg version="1.0" xmlns="http://www.w3.org/2000/svg"
 width="500.000000pt" height="189.000000pt" viewBox="0 0 500.000000 189.000000"
 preserveAspectRatio="xMidYMid meet">

<g transform="translate(0.000000,189.000000) scale(0.100000,-0.100000)"
fill="#000000" stroke="none">
<path d="M783 1875 c-299 -55 -547 -242 -683 -518 -76 -155 -93 -231 -93 -417
0 -186 17 -262 93 -417 124 -252 348 -435 614 -503 78 -20 109 -20 1786 -20
1952 0 1769 -9 1975 95 195 98 329 233 425 428 76 155 93 231 93 417 0 186
-17 262 -93 417 -124 251 -338 427 -615 505 l-80 23 -1675 2 c-1343 1 -1689
-1 -1747 -12z m1693 -222 c-3 -98 -8 -383 -11 -633 -3 -250 -8 -571 -11 -712
l-7 -258 -782 0 c-857 0 -882 1 -1031 59 -123 48 -212 107 -310 205 -212 214
-300 488 -249 781 32 182 111 332 249 471 99 99 187 157 310 205 146 56 159
57 1040 58 l808 1 -6 -177z m1729 162 c183 -32 333 -112 471 -249 212 -212
300 -488 249 -781 -32 -183 -112 -333 -249 -471 -98 -98 -188 -157 -310 -205
-149 -58 -171 -59 -1053 -59 l-805 0 6 188 c3 103 8 390 11 637 3 248 8 564
11 703 l7 252 787 0 c661 0 801 -2 875 -15z"/>
</g>
</svg>
