<?xml version="1.0" standalone="no"?>
<svg xmlns="http://www.w3.org/2000/svg" width="17" height="16"><rect width="17" height="16" opacity="0"></rect><g><path d="M5.84 6.05Q5.68 5.95 5.5 5.99Q5.32 6.03 5.2 6.17Q5.08 6.3 5.08 6.5L5.08 9.5Q5.08 9.7 5.2 9.83Q5.32 9.97 5.5 10.01Q5.68 10.05 5.84 9.95L8.49 8.45Q8.65 8.35 8.72 8.18Q8.78 8 8.72 7.82Q8.65 7.65 8.49 7.57L5.84 6.05Z" fill="rgba(0,0,0,0.9019607843137255)"></path><path d="M15.92 4.54Q15.66 4.38 15.34 4.38Q15.02 4.37 14.75 4.53L12.8 5.57L12.8 4.7Q12.8 4.19 12.54 3.76Q12.28 3.33 11.85 3.08Q11.42 2.83 10.91 2.83L2.38 2.83Q1.87 2.83 1.44 3.08Q1 3.33 0.75 3.76Q0.49 4.19 0.49 4.7L0.49 11.3Q0.49 11.81 0.75 12.24Q1 12.67 1.44 12.92Q1.87 13.17 2.38 13.17L10.91 13.17Q11.42 13.17 11.85 12.92Q12.28 12.67 12.54 12.24Q12.8 11.81 12.8 11.3L12.8 10.24L14.72 11.36Q14.99 11.52 15.31 11.52Q15.63 11.52 15.92 11.38Q16.19 11.22 16.35 10.95Q16.51 10.69 16.51 10.37L16.51 5.54Q16.51 5.23 16.35 4.97Q16.19 4.7 15.92 4.54ZM11.79 11.3Q11.79 11.65 11.53 11.9Q11.28 12.16 10.91 12.16L2.38 12.16Q2.01 12.16 1.76 11.9Q1.5 11.65 1.5 11.3L1.5 4.7Q1.5 4.35 1.76 4.1Q2.01 3.84 2.38 3.84L10.91 3.84Q11.28 3.84 11.53 4.1Q11.79 4.35 11.79 4.7L11.79 11.3ZM15.48 10.35Q15.48 10.46 15.41 10.5Q15.34 10.54 15.23 10.51L12.8 9.09L12.8 6.72L15.24 5.41Q15.31 5.34 15.4 5.4Q15.48 5.46 15.48 5.55L15.48 10.35Z" fill="rgba(0,0,0,0.9019607843137255)"></path></g></svg>