<?xml version="1.0" standalone="no"?>
<svg xmlns="http://www.w3.org/2000/svg" width="16" height="16"><rect width="16" height="16" opacity="0"></rect><g mask="url(#hms_mask_0)"><path d="M1.66 2.83Q1.22 2.83 0.83 3.06Q0.45 3.28 0.22 3.66Q0 4.05 0 4.5L0 11.5Q0 11.95 0.22 12.34Q0.45 12.72 0.83 12.94Q1.22 13.17 1.66 13.17L10 13.17Q10.45 13.17 10.83 12.94Q11.22 12.72 11.44 12.34Q11.66 11.95 11.66 11.5L11.66 4.5Q11.66 4.05 11.44 3.66Q11.22 3.28 10.83 3.06Q10.45 2.83 10 2.83L1.66 2.83ZM12.54 5.54L12.54 10.46L14.54 11.49Q14.86 11.65 15.21 11.57Q15.55 11.49 15.78 11.22Q16 10.96 16 10.59L16 5.39Q16 5.02 15.78 4.76Q15.55 4.5 15.21 4.42Q14.86 4.34 14.54 4.51Z" fill="rgba(0,0,0,0.9019607843137255)"></path></g><defs><mask id="hms_mask_0"><rect width="16" height="16" fill="#ffffff"></rect><g><path d="M7.94 7.39Q8.21 7.54 8.21 7.83Q8.21 8.13 7.94 8.27L5.3 9.79Q5.04 9.95 4.78 9.8Q4.53 9.65 4.53 9.36L4.53 6.3Q4.53 6 4.78 5.86Q5.02 5.71 5.3 5.86L7.94 7.39Z" fill="#000000"></path></g></mask></defs></svg>