<?xml version="1.0" standalone="no"?>
<svg xmlns="http://www.w3.org/2000/svg" width="16" height="16"><rect width="16" height="16" opacity="0"></rect><g><path d="M13.33 8Q13.12 8 12.98 8.15Q12.83 8.3 12.83 8.51L12.83 13.33Q12.83 13.54 12.68 13.68Q12.53 13.82 12.32 13.82L10.48 13.82L10.48 10.96Q10.48 10.29 10.14 9.72Q9.81 9.15 9.24 8.82Q8.67 8.48 8 8.48Q7.31 8.48 6.74 8.82Q6.18 9.15 5.84 9.72Q5.5 10.29 5.5 10.96L5.5 13.82L3.65 13.82Q3.46 13.82 3.3 13.67Q3.15 13.52 3.15 13.31L3.15 8.51Q3.15 8.3 3.01 8.15Q2.86 8 2.66 8Q2.45 8 2.3 8.15Q2.16 8.3 2.16 8.51L2.16 13.31Q2.16 13.73 2.36 14.07Q2.56 14.42 2.9 14.62Q3.25 14.82 3.65 14.82L12.32 14.82Q12.72 14.82 13.06 14.62Q13.41 14.42 13.62 14.07Q13.82 13.73 13.82 13.33L13.82 8.51Q13.82 8.3 13.68 8.15Q13.54 8 13.33 8ZM6.51 10.96Q6.51 10.35 6.95 9.91Q7.39 9.47 8 9.47Q8.61 9.47 9.05 9.91Q9.49 10.35 9.49 10.96L9.49 13.82L6.51 13.82L6.51 10.96ZM15.02 7.63Q15.15 7.49 15.15 7.28Q15.15 7.07 15.01 6.93L9.63 1.84Q9.18 1.41 8.59 1.26Q8 1.1 7.41 1.26Q6.82 1.41 6.37 1.84L1.01 6.93Q0.85 7.07 0.85 7.28Q0.85 7.49 0.99 7.65Q1.12 7.78 1.34 7.78Q1.57 7.79 1.7 7.66L7.07 2.56Q7.47 2.18 8.01 2.18Q8.54 2.18 8.94 2.56L14.32 7.65Q14.46 7.79 14.67 7.79Q14.88 7.79 15.02 7.63Z" fill="rgba(0,0,0,0.9019607843137255)"></path></g></svg>