<?xml version="1.0" standalone="no"?>
<svg xmlns="http://www.w3.org/2000/svg" width="16" height="16"><rect width="16" height="16" opacity="0"></rect><g mask="url(#hms_mask_0)"><path d="M13.58 8.05Q11.76 6.3 9.92 4.58L8.7 3.44Q8.4 3.15 7.99 3.15Q7.58 3.15 7.28 3.44L2.43 8.05Q2.3 8.18 2.24 8.34Q2.18 8.5 2.18 8.66L2.18 13.33Q2.18 13.74 2.38 14.09Q2.58 14.43 2.92 14.63Q3.26 14.83 3.68 14.83L12.34 14.83Q12.74 14.83 13.08 14.63Q13.42 14.43 13.62 14.09Q13.82 13.74 13.82 13.33L13.82 8.64Q13.82 8.46 13.76 8.31Q13.7 8.16 13.58 8.05Z" fill="rgba(0,0,0,0.9019607843137255)"></path><path d="M0.99 7.65Q1.12 7.78 1.34 7.78Q1.57 7.79 1.7 7.66L7.07 2.56Q7.47 2.18 8.01 2.18Q8.54 2.18 8.94 2.56L14.32 7.65Q14.46 7.79 14.67 7.79Q14.88 7.79 15.02 7.63Q15.15 7.49 15.15 7.28Q15.15 7.07 15.01 6.93L9.63 1.84Q9.18 1.41 8.59 1.26Q8 1.1 7.41 1.26Q6.82 1.41 6.37 1.84L1.01 6.93Q0.85 7.07 0.85 7.28Q0.85 7.49 0.99 7.65Z" fill="rgba(0,0,0,0.9019607843137255)"></path></g><defs><mask id="hms_mask_0"><rect width="16" height="16" fill="#ffffff"></rect><g><path d="M6.02 13.82L6.02 10.78Q6.02 10.03 6.59 9.5Q7.17 8.98 8 8.98Q8.83 8.98 9.41 9.5Q9.98 10.03 9.98 10.78L9.98 13.82Z" fill="#000000"></path></g></mask></defs></svg>