<?xml version="1.0" standalone="no"?>
<svg xmlns="http://www.w3.org/2000/svg" width="16" height="16"><rect width="16" height="16" opacity="0"></rect><g><path d="M4.14 0.67Q3.57 0.67 3.07 0.97Q2.58 1.26 2.28 1.76Q1.98 2.26 1.98 2.83L1.98 13.17Q1.98 13.76 2.28 14.26Q2.58 14.75 3.07 15.04Q3.57 15.33 4.14 15.33L11.84 15.33Q12.43 15.33 12.93 15.04Q13.42 14.75 13.72 14.26Q14.02 13.76 14.02 13.17L14.02 4.83L9.84 0.67L4.14 0.67ZM5.01 8Q4.82 8 4.66 7.86Q4.51 7.71 4.51 7.5Q4.51 7.3 4.66 7.14Q4.82 6.99 5.01 6.99L7.68 6.99Q7.89 6.99 8.04 7.14Q8.19 7.3 8.19 7.5Q8.19 7.71 8.04 7.86Q7.89 8 7.68 8L5.01 8ZM5.01 10.83Q4.82 10.83 4.66 10.69Q4.51 10.54 4.51 10.34Q4.51 10.13 4.66 9.98Q4.82 9.84 5.01 9.84L10.99 9.84Q11.2 9.84 11.34 9.98Q11.49 10.13 11.49 10.34Q11.49 10.54 11.34 10.69Q11.2 10.83 10.99 10.83L5.01 10.83ZM10.32 4.83Q10.11 4.83 9.97 4.68Q9.82 4.53 9.82 4.32L9.82 2.06L12.59 4.83L10.32 4.83Z" fill="rgba(0,0,0,0.9019607843137255)"></path></g></svg>